<?xml version="1.0" encoding="UTF-8" standalone="no"?>
<!DOCTYPE svg PUBLIC "-//W3C//DTD SVG 1.1//EN"
 "http://www.w3.org/Graphics/SVG/1.1/DTD/svg11.dtd">
<!-- Generated by graphviz version 2.42.4 (0)
 -->
<!-- Title: ER Pages: 1 -->
<svg width="1180pt" height="1207pt"
 viewBox="0.00 0.00 1180.00 1206.50" xmlns="http://www.w3.org/2000/svg" xmlns:xlink="http://www.w3.org/1999/xlink">
<g id="graph0" class="graph" transform="scale(1 1) rotate(0) translate(18 1188.5)">
<title>ER</title>
<polygon fill="white" stroke="transparent" points="-18,18 -18,-1188.5 1162,-1188.5 1162,18 -18,18"/>
<text text-anchor="middle" x="572" y="-1148.9" font-family="DejaVu Sans" font-size="22.00">Auto Deployer MVP &#45; Database ER Diagram</text>
<!-- users -->
<g id="node1" class="node">
<title>users</title>
<polygon fill="#dbeafe" stroke="transparent" points="49,-1110.5 49,-1137.5 286,-1137.5 286,-1110.5 49,-1110.5"/>
<text text-anchor="start" x="146" y="-1121.3" font-family="DejaVu Sans" font-weight="bold" font-size="14.00">users</text>
<text text-anchor="start" x="55" y="-1094.3" font-family="DejaVu Sans" font-weight="bold" font-size="14.00">PK</text>
<text text-anchor="start" x="77" y="-1094.3" font-family="DejaVu Sans" font-size="14.00"> id : UUID</text>
<text text-anchor="start" x="55" y="-1066.3" font-family="DejaVu Sans" font-size="14.00">username : varchar(50) UNIQUE</text>
<text text-anchor="start" x="55" y="-1039.3" font-family="DejaVu Sans" font-size="14.00">email : varchar(255) UNIQUE</text>
<text text-anchor="start" x="55" y="-1012.3" font-family="DejaVu Sans" font-size="14.00">password_hash : varchar(255)</text>
<text text-anchor="start" x="55" y="-985.3" font-family="DejaVu Sans" font-size="14.00">is_active : boolean</text>
<text text-anchor="start" x="55" y="-958.3" font-family="DejaVu Sans" font-size="14.00">created_at : timestamptz</text>
<text text-anchor="start" x="55" y="-931.3" font-family="DejaVu Sans" font-size="14.00">updated_at : timestamptz</text>
<polygon fill="none" stroke="#2563eb" points="47.5,-920.5 47.5,-1138.5 286.5,-1138.5 286.5,-920.5 47.5,-920.5"/>
</g>
<!-- projects -->
<g id="node2" class="node">
<title>projects</title>
<polygon fill="#d1fae5" stroke="transparent" points="47,-812.5 47,-839.5 288,-839.5 288,-812.5 47,-812.5"/>
<text text-anchor="start" x="135.5" y="-823.3" font-family="DejaVu Sans" font-weight="bold" font-size="14.00">projects</text>
<text text-anchor="start" x="53" y="-796.3" font-family="DejaVu Sans" font-weight="bold" font-size="14.00">PK</text>
<text text-anchor="start" x="75" y="-796.3" font-family="DejaVu Sans" font-size="14.00"> id : UUID</text>
<text text-anchor="start" x="53" y="-769.3" font-family="DejaVu Sans" font-weight="bold" font-size="14.00">FK</text>
<text text-anchor="start" x="74" y="-769.3" font-family="DejaVu Sans" font-size="14.00"> owner_id : users.id</text>
<text text-anchor="start" x="53" y="-741.3" font-family="DejaVu Sans" font-size="14.00">name : varchar(150)</text>
<text text-anchor="start" x="53" y="-714.3" font-family="DejaVu Sans" font-size="14.00">description : text</text>
<text text-anchor="start" x="53" y="-687.3" font-family="DejaVu Sans" font-size="14.00">repository_provider : varchar(30)</text>
<text text-anchor="start" x="53" y="-660.3" font-family="DejaVu Sans" font-size="14.00">repository_url : varchar(500)</text>
<text text-anchor="start" x="53" y="-633.3" font-family="DejaVu Sans" font-size="14.00">branch : varchar(150)</text>
<text text-anchor="start" x="53" y="-606.3" font-family="DejaVu Sans" font-size="14.00">created_at / updated_at</text>
<polygon fill="none" stroke="#059669" points="45.5,-596 45.5,-841 288.5,-841 288.5,-596 45.5,-596"/>
</g>
<!-- users&#45;&gt;projects -->
<g id="edge1" class="edge">
<title>users&#45;&gt;projects</title>
<path fill="none" stroke="#374151" stroke-width="1.4" d="M167,-912.29C167,-912.29 167,-853.25 167,-853.25"/>
<polygon fill="#374151" stroke="#374151" stroke-width="1.4" points="163,-842.05 171,-842.05 171,-843.65 163,-843.65 163,-842.05"/>
<polyline fill="none" stroke="#374151" stroke-width="1.4" points="167,-841.25 167,-845.25 "/>
<polygon fill="#374151" stroke="#374151" stroke-width="1.4" points="163,-846.05 171,-846.05 171,-847.65 163,-847.65 163,-846.05"/>
<polyline fill="none" stroke="#374151" stroke-width="1.4" points="167,-845.25 167,-849.25 "/>
<polygon fill="#374151" stroke="#374151" stroke-width="1.4" points="167,-912.29 163.4,-920.29 167,-916.29 167,-920.29 167,-920.29 167,-920.29 167,-916.29 170.6,-920.29 167,-912.29 167,-912.29"/>
<polygon fill="#374151" stroke="#374151" stroke-width="1.4" points="171,-911.49 163,-911.49 163,-909.89 171,-909.89 171,-911.49"/>
<polyline fill="none" stroke="#374151" stroke-width="1.4" points="167,-912.29 167,-908.29 "/>
</g>
<!-- deployments -->
<g id="node5" class="node">
<title>deployments</title>
<polygon fill="#fef3c7" stroke="transparent" points="446,-907.5 446,-934.5 717,-934.5 717,-907.5 446,-907.5"/>
<text text-anchor="start" x="530.5" y="-918.3" font-family="DejaVu Sans" font-weight="bold" font-size="14.00">deployments</text>
<text text-anchor="start" x="452" y="-891.3" font-family="DejaVu Sans" font-weight="bold" font-size="14.00">PK</text>
<text text-anchor="start" x="474" y="-891.3" font-family="DejaVu Sans" font-size="14.00"> id : UUID</text>
<text text-anchor="start" x="452" y="-864.3" font-family="DejaVu Sans" font-weight="bold" font-size="14.00">FK</text>
<text text-anchor="start" x="473" y="-864.3" font-family="DejaVu Sans" font-size="14.00"> project_id : projects.id</text>
<text text-anchor="start" x="452" y="-837.3" font-family="DejaVu Sans" font-weight="bold" font-size="14.00">FK</text>
<text text-anchor="start" x="473" y="-837.3" font-family="DejaVu Sans" font-size="14.00"> environment_id : environments.id</text>
<text text-anchor="start" x="452" y="-810.3" font-family="DejaVu Sans" font-weight="bold" font-size="14.00">FK</text>
<text text-anchor="start" x="473" y="-810.3" font-family="DejaVu Sans" font-size="14.00"> started_by_user_id : users.id</text>
<text text-anchor="start" x="452" y="-782.3" font-family="DejaVu Sans" font-size="14.00">version_number : integer</text>
<text text-anchor="start" x="452" y="-755.3" font-family="DejaVu Sans" font-size="14.00">commit_sha / branch / status</text>
<text text-anchor="start" x="452" y="-728.3" font-family="DejaVu Sans" font-size="14.00">image_tag / container_name</text>
<text text-anchor="start" x="452" y="-701.3" font-family="DejaVu Sans" font-size="14.00">started_at / completed_at</text>
<polygon fill="none" stroke="#d97706" points="444.5,-691 444.5,-936 717.5,-936 717.5,-691 444.5,-691"/>
</g>
<!-- users&#45;&gt;deployments -->
<g id="edge6" class="edge">
<title>users&#45;&gt;deployments</title>
<path fill="none" stroke="#374151" stroke-width="1.4" d="M294.75,-928.25C294.75,-928.25 430,-928.25 430,-928.25"/>
<polygon fill="#374151" stroke="#374151" stroke-width="1.4" points="443.6,-924.25 443.6,-932.25 442,-932.25 442,-924.25 443.6,-924.25"/>
<polyline fill="none" stroke="#374151" stroke-width="1.4" points="444.4,-928.25 440.4,-928.25 "/>
<polygon fill="#374151" stroke="#374151" stroke-width="1.4" points="439.6,-924.25 439.6,-932.25 438,-932.25 438,-924.25 439.6,-924.25"/>
<polyline fill="none" stroke="#374151" stroke-width="1.4" points="440.4,-928.25 436.4,-928.25 "/>
<polygon fill="#374151" stroke="#374151" stroke-width="1.4" points="294.75,-928.25 286.75,-924.65 290.75,-928.25 286.75,-928.25 286.75,-928.25 286.75,-928.25 290.75,-928.25 286.75,-931.85 294.75,-928.25 294.75,-928.25"/>
<ellipse fill="none" stroke="#374151" stroke-width="1.4" cx="297.95" cy="-928.25" rx="3.2" ry="3.2"/>
<text text-anchor="middle" x="385.5" y="-857.5" font-family="DejaVu Sans" font-size="10.00">starts</text>
</g>
<!-- audits -->
<g id="node9" class="node">
<title>audits</title>
<polygon fill="#ccfbf1" stroke="transparent" points="862,-1096.5 862,-1123.5 1102,-1123.5 1102,-1096.5 862,-1096.5"/>
<text text-anchor="start" x="942" y="-1107.3" font-family="DejaVu Sans" font-weight="bold" font-size="14.00">audit_logs</text>
<text text-anchor="start" x="868" y="-1080.3" font-family="DejaVu Sans" font-weight="bold" font-size="14.00">PK</text>
<text text-anchor="start" x="890" y="-1080.3" font-family="DejaVu Sans" font-size="14.00"> id : bigserial</text>
<text text-anchor="start" x="868" y="-1053.3" font-family="DejaVu Sans" font-weight="bold" font-size="14.00">FK</text>
<text text-anchor="start" x="889" y="-1053.3" font-family="DejaVu Sans" font-size="14.00"> actor_user_id : users.id NULL</text>
<text text-anchor="start" x="868" y="-1025.3" font-family="DejaVu Sans" font-size="14.00">action : varchar(100)</text>
<text text-anchor="start" x="868" y="-998.3" font-family="DejaVu Sans" font-size="14.00">entity_type / entity_id</text>
<text text-anchor="start" x="868" y="-971.3" font-family="DejaVu Sans" font-size="14.00">ip_address / metadata_json</text>
<text text-anchor="start" x="868" y="-944.3" font-family="DejaVu Sans" font-size="14.00">created_at : timestamptz</text>
<polygon fill="none" stroke="#0f766e" points="861,-934 861,-1125 1103,-1125 1103,-934 861,-934"/>
</g>
<!-- users&#45;&gt;audits -->
<g id="edge12" class="edge">
<title>users&#45;&gt;audits</title>
<path fill="none" stroke="#374151" stroke-width="1.4" d="M297.22,-1030.5C297.22,-1030.5 848.78,-1030.5 848.78,-1030.5"/>
<ellipse fill="none" stroke="#374151" stroke-width="1.4" cx="857.58" cy="-1030.5" rx="3.2" ry="3.2"/>
<polygon fill="#374151" stroke="#374151" stroke-width="1.4" points="853.58,-1026.5 853.58,-1034.5 851.98,-1034.5 851.98,-1026.5 853.58,-1026.5"/>
<polyline fill="none" stroke="#374151" stroke-width="1.4" points="854.38,-1030.5 850.38,-1030.5 "/>
<polygon fill="#374151" stroke="#374151" stroke-width="1.4" points="294.82,-1030.5 286.82,-1026.9 290.82,-1030.5 286.82,-1030.5 286.82,-1030.5 286.82,-1030.5 290.82,-1030.5 286.82,-1034.1 294.82,-1030.5 294.82,-1030.5"/>
<polygon fill="#374151" stroke="#374151" stroke-width="1.4" points="295.62,-1034.5 295.62,-1026.5 297.22,-1026.5 297.22,-1034.5 295.62,-1034.5"/>
<polyline fill="none" stroke="#374151" stroke-width="1.4" points="294.82,-1030.5 298.82,-1030.5 "/>
<text text-anchor="middle" x="581" y="-1032.5" font-family="DejaVu Sans" font-size="10.00">generates</text>
</g>
<!-- environments -->
<g id="node3" class="node">
<title>environments</title>
<polygon fill="#ede9fe" stroke="transparent" points="48,-487.5 48,-514.5 286,-514.5 286,-487.5 48,-487.5"/>
<text text-anchor="start" x="112.5" y="-498.3" font-family="DejaVu Sans" font-weight="bold" font-size="14.00">environments</text>
<text text-anchor="start" x="54" y="-471.3" font-family="DejaVu Sans" font-weight="bold" font-size="14.00">PK</text>
<text text-anchor="start" x="76" y="-471.3" font-family="DejaVu Sans" font-size="14.00"> id : UUID</text>
<text text-anchor="start" x="54" y="-444.3" font-family="DejaVu Sans" font-weight="bold" font-size="14.00">FK</text>
<text text-anchor="start" x="75" y="-444.3" font-family="DejaVu Sans" font-size="14.00"> project_id : projects.id</text>
<text text-anchor="start" x="54" y="-416.3" font-family="DejaVu Sans" font-size="14.00">name : varchar(100)</text>
<text text-anchor="start" x="54" y="-389.3" font-family="DejaVu Sans" font-size="14.00">environment_type : varchar(30)</text>
<text text-anchor="start" x="54" y="-362.3" font-family="DejaVu Sans" font-size="14.00">host / ssh_port / username</text>
<text text-anchor="start" x="54" y="-335.3" font-family="DejaVu Sans" font-size="14.00">application_port / container_port</text>
<text text-anchor="start" x="54" y="-308.3" font-family="DejaVu Sans" font-size="14.00">domain : varchar(255) NULL</text>
<text text-anchor="start" x="54" y="-281.3" font-family="DejaVu Sans" font-size="14.00">is_production : boolean</text>
<polygon fill="none" stroke="#7c3aed" points="47,-271 47,-516 287,-516 287,-271 47,-271"/>
</g>
<!-- projects&#45;&gt;environments -->
<g id="edge2" class="edge">
<title>projects&#45;&gt;environments</title>
<path fill="none" stroke="#374151" stroke-width="1.4" d="M167,-587.63C167,-587.63 167,-528 167,-528"/>
<polygon fill="#374151" stroke="#374151" stroke-width="1.4" points="163,-516.8 171,-516.8 171,-518.4 163,-518.4 163,-516.8"/>
<polyline fill="none" stroke="#374151" stroke-width="1.4" points="167,-516 167,-520 "/>
<polygon fill="#374151" stroke="#374151" stroke-width="1.4" points="163,-520.8 171,-520.8 171,-522.4 163,-522.4 163,-520.8"/>
<polyline fill="none" stroke="#374151" stroke-width="1.4" points="167,-520 167,-524 "/>
<polygon fill="#374151" stroke="#374151" stroke-width="1.4" points="167,-587.63 163.4,-595.63 167,-591.63 167,-595.63 167,-595.63 167,-595.63 167,-591.63 170.6,-595.63 167,-587.63 167,-587.63"/>
<polygon fill="#374151" stroke="#374151" stroke-width="1.4" points="171,-586.83 163,-586.83 163,-585.23 171,-585.23 171,-586.83"/>
<polyline fill="none" stroke="#374151" stroke-width="1.4" points="167,-587.63 167,-583.63 "/>
</g>
<!-- projects&#45;&gt;deployments -->
<g id="edge4" class="edge">
<title>projects&#45;&gt;deployments</title>
<path fill="none" stroke="#374151" stroke-width="1.4" d="M296.7,-728.5C296.7,-728.5 432.5,-728.5 432.5,-728.5"/>
<polygon fill="#374151" stroke="#374151" stroke-width="1.4" points="443.7,-724.5 443.7,-732.5 442.1,-732.5 442.1,-724.5 443.7,-724.5"/>
<polyline fill="none" stroke="#374151" stroke-width="1.4" points="444.5,-728.5 440.5,-728.5 "/>
<polygon fill="#374151" stroke="#374151" stroke-width="1.4" points="439.7,-724.5 439.7,-732.5 438.1,-732.5 438.1,-724.5 439.7,-724.5"/>
<polyline fill="none" stroke="#374151" stroke-width="1.4" points="440.5,-728.5 436.5,-728.5 "/>
<polygon fill="#374151" stroke="#374151" stroke-width="1.4" points="296.7,-728.5 288.7,-724.9 292.7,-728.5 288.7,-728.5 288.7,-728.5 288.7,-728.5 292.7,-728.5 288.7,-732.1 296.7,-728.5 296.7,-728.5"/>
<polygon fill="#374151" stroke="#374151" stroke-width="1.4" points="297.5,-732.5 297.5,-724.5 299.1,-724.5 299.1,-732.5 297.5,-732.5"/>
<polyline fill="none" stroke="#374151" stroke-width="1.4" points="296.7,-728.5 300.7,-728.5 "/>
<text text-anchor="middle" x="385.5" y="-775.5" font-family="DejaVu Sans" font-size="10.00">has</text>
</g>
<!-- credentials -->
<g id="node4" class="node">
<title>credentials</title>
<polygon fill="#fee2e2" stroke="transparent" points="1,-162.5 1,-189.5 333,-189.5 333,-162.5 1,-162.5"/>
<text text-anchor="start" x="94.5" y="-173.3" font-family="DejaVu Sans" font-weight="bold" font-size="14.00">server_credentials</text>
<text text-anchor="start" x="7" y="-146.3" font-family="DejaVu Sans" font-weight="bold" font-size="14.00">PK</text>
<text text-anchor="start" x="29" y="-146.3" font-family="DejaVu Sans" font-size="14.00"> id : UUID</text>
<text text-anchor="start" x="7" y="-119.3" font-family="DejaVu Sans" font-weight="bold" font-size="14.00">FK</text>
<text text-anchor="start" x="28" y="-119.3" font-family="DejaVu Sans" font-size="14.00"> environment_id : environments.id UNIQUE</text>
<text text-anchor="start" x="7" y="-91.3" font-family="DejaVu Sans" font-size="14.00">auth_type : varchar(20)</text>
<text text-anchor="start" x="7" y="-64.3" font-family="DejaVu Sans" font-size="14.00">encrypted_secret : text</text>
<text text-anchor="start" x="7" y="-37.3" font-family="DejaVu Sans" font-size="14.00">key_fingerprint : varchar(255) NULL</text>
<text text-anchor="start" x="7" y="-10.3" font-family="DejaVu Sans" font-size="14.00">created_at / updated_at</text>
<polygon fill="none" stroke="#dc2626" points="0,0 0,-191 334,-191 334,0 0,0"/>
</g>
<!-- environments&#45;&gt;credentials -->
<g id="edge3" class="edge">
<title>environments&#45;&gt;credentials</title>
<path fill="none" stroke="#374151" stroke-width="1.4" d="M167,-262.57C167,-262.57 167,-199.29 167,-199.29"/>
<polygon fill="#374151" stroke="#374151" stroke-width="1.4" points="163,-192.09 171,-192.09 171,-193.69 163,-193.69 163,-192.09"/>
<polyline fill="none" stroke="#374151" stroke-width="1.4" points="167,-191.29 167,-195.29 "/>
<polygon fill="#374151" stroke="#374151" stroke-width="1.4" points="163,-196.09 171,-196.09 171,-197.69 163,-197.69 163,-196.09"/>
<polyline fill="none" stroke="#374151" stroke-width="1.4" points="167,-195.29 167,-199.29 "/>
<polygon fill="#374151" stroke="#374151" stroke-width="1.4" points="171,-269.77 163,-269.77 163,-268.17 171,-268.17 171,-269.77"/>
<polyline fill="none" stroke="#374151" stroke-width="1.4" points="167,-270.57 167,-266.57 "/>
<polygon fill="#374151" stroke="#374151" stroke-width="1.4" points="171,-265.77 163,-265.77 163,-264.17 171,-264.17 171,-265.77"/>
<polyline fill="none" stroke="#374151" stroke-width="1.4" points="167,-266.57 167,-262.57 "/>
</g>
<!-- environments&#45;&gt;deployments -->
<g id="edge5" class="edge">
<title>environments&#45;&gt;deployments</title>
<path fill="none" stroke="#374151" stroke-width="1.4" d="M295.07,-468C295.07,-468 312,-468 312,-468 312,-468 312,-803.5 312,-803.5 312,-803.5 432.14,-803.5 432.14,-803.5"/>
<polygon fill="#374151" stroke="#374151" stroke-width="1.4" points="287.87,-472 287.87,-464 289.47,-464 289.47,-472 287.87,-472"/>
<polyline fill="none" stroke="#374151" stroke-width="1.4" points="287.07,-468 291.07,-468 "/>
<polygon fill="#374151" stroke="#374151" stroke-width="1.4" points="291.87,-472 291.87,-464 293.47,-464 293.47,-472 291.87,-472"/>
<polyline fill="none" stroke="#374151" stroke-width="1.4" points="291.07,-468 295.07,-468 "/>
<polygon fill="#374151" stroke="#374151" stroke-width="1.4" points="436.14,-803.5 444.14,-807.1 440.14,-803.5 444.14,-803.5 444.14,-803.5 444.14,-803.5 440.14,-803.5 444.14,-799.9 436.14,-803.5 436.14,-803.5"/>
<polygon fill="#374151" stroke="#374151" stroke-width="1.4" points="435.34,-799.5 435.34,-807.5 433.74,-807.5 433.74,-799.5 435.34,-799.5"/>
<polyline fill="none" stroke="#374151" stroke-width="1.4" points="436.14,-803.5 432.14,-803.5 "/>
<text text-anchor="middle" x="385.5" y="-517.5" font-family="DejaVu Sans" font-size="10.00">targets</text>
</g>
<!-- versions -->
<g id="node8" class="node">
<title>versions</title>
<polygon fill="#f3e8ff" stroke="transparent" points="821,-528.5 821,-555.5 1143,-555.5 1143,-528.5 821,-528.5"/>
<text text-anchor="start" x="902" y="-539.3" font-family="DejaVu Sans" font-weight="bold" font-size="14.00">application_versions</text>
<text text-anchor="start" x="827" y="-512.3" font-family="DejaVu Sans" font-weight="bold" font-size="14.00">PK</text>
<text text-anchor="start" x="849" y="-512.3" font-family="DejaVu Sans" font-size="14.00"> id : UUID</text>
<text text-anchor="start" x="827" y="-485.3" font-family="DejaVu Sans" font-weight="bold" font-size="14.00">FK</text>
<text text-anchor="start" x="848" y="-485.3" font-family="DejaVu Sans" font-size="14.00"> environment_id : environments.id</text>
<text text-anchor="start" x="827" y="-458.3" font-family="DejaVu Sans" font-weight="bold" font-size="14.00">FK</text>
<text text-anchor="start" x="848" y="-458.3" font-family="DejaVu Sans" font-size="14.00"> deployment_id : deployments.id UNIQUE</text>
<text text-anchor="start" x="827" y="-430.3" font-family="DejaVu Sans" font-size="14.00">version_number : integer</text>
<text text-anchor="start" x="827" y="-403.3" font-family="DejaVu Sans" font-size="14.00">image_tag / commit_sha</text>
<text text-anchor="start" x="827" y="-376.3" font-family="DejaVu Sans" font-size="14.00">is_active : boolean</text>
<text text-anchor="start" x="827" y="-349.3" font-family="DejaVu Sans" font-size="14.00">created_at : timestamptz</text>
<polygon fill="none" stroke="#9333ea" points="820,-338.5 820,-556.5 1144,-556.5 1144,-338.5 820,-338.5"/>
</g>
<!-- environments&#45;&gt;versions -->
<g id="edge10" class="edge">
<title>environments&#45;&gt;versions</title>
<path fill="none" stroke="#374151" stroke-width="1.4" d="M295.26,-380C295.26,-380 807.74,-380 807.74,-380"/>
<polygon fill="#374151" stroke="#374151" stroke-width="1.4" points="818.94,-376 818.94,-384 817.34,-384 817.34,-376 818.94,-376"/>
<polyline fill="none" stroke="#374151" stroke-width="1.4" points="819.74,-380 815.74,-380 "/>
<polygon fill="#374151" stroke="#374151" stroke-width="1.4" points="814.94,-376 814.94,-384 813.34,-384 813.34,-376 814.94,-376"/>
<polyline fill="none" stroke="#374151" stroke-width="1.4" points="815.74,-380 811.74,-380 "/>
<polygon fill="#374151" stroke="#374151" stroke-width="1.4" points="295.26,-380 287.26,-376.4 291.26,-380 287.26,-380 287.26,-380 287.26,-380 291.26,-380 287.26,-383.6 295.26,-380 295.26,-380"/>
<polygon fill="#374151" stroke="#374151" stroke-width="1.4" points="296.06,-384 296.06,-376 297.66,-376 297.66,-384 296.06,-384"/>
<polyline fill="none" stroke="#374151" stroke-width="1.4" points="295.26,-380 299.26,-380 "/>
<text text-anchor="middle" x="581" y="-100.5" font-family="DejaVu Sans" font-size="10.00">retains</text>
</g>
<!-- steps -->
<g id="node6" class="node">
<title>steps</title>
<polygon fill="#cffafe" stroke="transparent" points="451,-582.5 451,-609.5 712,-609.5 712,-582.5 451,-582.5"/>
<text text-anchor="start" x="510" y="-593.3" font-family="DejaVu Sans" font-weight="bold" font-size="14.00">deployment_steps</text>
<text text-anchor="start" x="457" y="-566.3" font-family="DejaVu Sans" font-weight="bold" font-size="14.00">PK</text>
<text text-anchor="start" x="479" y="-566.3" font-family="DejaVu Sans" font-size="14.00"> id : UUID</text>
<text text-anchor="start" x="457" y="-539.3" font-family="DejaVu Sans" font-weight="bold" font-size="14.00">FK</text>
<text text-anchor="start" x="478" y="-539.3" font-family="DejaVu Sans" font-size="14.00"> deployment_id : deployments.id</text>
<text text-anchor="start" x="457" y="-511.3" font-family="DejaVu Sans" font-size="14.00">step_order : integer</text>
<text text-anchor="start" x="457" y="-484.3" font-family="DejaVu Sans" font-size="14.00">name / status</text>
<text text-anchor="start" x="457" y="-457.3" font-family="DejaVu Sans" font-size="14.00">started_at / completed_at</text>
<text text-anchor="start" x="457" y="-430.3" font-family="DejaVu Sans" font-size="14.00">error_message : text NULL</text>
<polygon fill="none" stroke="#0891b2" points="449.5,-420 449.5,-611 712.5,-611 712.5,-420 449.5,-420"/>
</g>
<!-- deployments&#45;&gt;steps -->
<g id="edge7" class="edge">
<title>deployments&#45;&gt;steps</title>
<path fill="none" stroke="#374151" stroke-width="1.4" d="M581,-682.57C581,-682.57 581,-623.29 581,-623.29"/>
<polygon fill="#374151" stroke="#374151" stroke-width="1.4" points="577,-612.09 585,-612.09 585,-613.69 577,-613.69 577,-612.09"/>
<polyline fill="none" stroke="#374151" stroke-width="1.4" points="581,-611.29 581,-615.29 "/>
<polygon fill="#374151" stroke="#374151" stroke-width="1.4" points="577,-616.09 585,-616.09 585,-617.69 577,-617.69 577,-616.09"/>
<polyline fill="none" stroke="#374151" stroke-width="1.4" points="581,-615.29 581,-619.29 "/>
<polygon fill="#374151" stroke="#374151" stroke-width="1.4" points="581,-682.57 577.4,-690.57 581,-686.57 581,-690.57 581,-690.57 581,-690.57 581,-686.57 584.6,-690.57 581,-682.57 581,-682.57"/>
<polygon fill="#374151" stroke="#374151" stroke-width="1.4" points="585,-681.77 577,-681.77 577,-680.17 585,-680.17 585,-681.77"/>
<polyline fill="none" stroke="#374151" stroke-width="1.4" points="581,-682.57 581,-678.57 "/>
</g>
<!-- logs -->
<g id="node7" class="node">
<title>logs</title>
<polygon fill="#e2e8f0" stroke="transparent" points="438,-311.5 438,-338.5 724,-338.5 724,-311.5 438,-311.5"/>
<text text-anchor="start" x="514.5" y="-322.3" font-family="DejaVu Sans" font-weight="bold" font-size="14.00">deployment_logs</text>
<text text-anchor="start" x="444" y="-295.3" font-family="DejaVu Sans" font-weight="bold" font-size="14.00">PK</text>
<text text-anchor="start" x="466" y="-295.3" font-family="DejaVu Sans" font-size="14.00"> id : bigserial</text>
<text text-anchor="start" x="444" y="-268.3" font-family="DejaVu Sans" font-weight="bold" font-size="14.00">FK</text>
<text text-anchor="start" x="465" y="-268.3" font-family="DejaVu Sans" font-size="14.00"> deployment_id : deployments.id</text>
<text text-anchor="start" x="444" y="-241.3" font-family="DejaVu Sans" font-weight="bold" font-size="14.00">FK</text>
<text text-anchor="start" x="465" y="-241.3" font-family="DejaVu Sans" font-size="14.00"> step_id : deployment_steps.id NULL</text>
<text text-anchor="start" x="444" y="-213.3" font-family="DejaVu Sans" font-size="14.00">level : varchar(20)</text>
<text text-anchor="start" x="444" y="-186.3" font-family="DejaVu Sans" font-size="14.00">message : text</text>
<text text-anchor="start" x="444" y="-159.3" font-family="DejaVu Sans" font-size="14.00">created_at : timestamptz</text>
<polygon fill="none" stroke="#475569" points="437,-149 437,-340 725,-340 725,-149 437,-149"/>
</g>
<!-- deployments&#45;&gt;logs -->
<g id="edge8" class="edge">
<title>deployments&#45;&gt;logs</title>
<path fill="none" stroke="#374151" stroke-width="1.4" d="M441.35,-766C441.35,-766 441,-766 441,-766 441,-766 441,-352.15 441,-352.15"/>
<polygon fill="#374151" stroke="#374151" stroke-width="1.4" points="443.66,-762 443.66,-770 442.06,-770 442.06,-762 443.66,-762"/>
<polyline fill="none" stroke="#374151" stroke-width="1.4" points="444.46,-766 440.46,-766 "/>
<polygon fill="#374151" stroke="#374151" stroke-width="1.4" points="439.66,-762 439.66,-770 438.06,-770 438.06,-762 439.66,-762"/>
<polyline fill="none" stroke="#374151" stroke-width="1.4" points="440.46,-766 436.46,-766 "/>
<polygon fill="#374151" stroke="#374151" stroke-width="1.4" points="441,-348.15 444.6,-340.15 441,-344.15 441,-340.15 441,-340.15 441,-340.15 441,-344.15 437.4,-340.15 441,-348.15 441,-348.15"/>
<polygon fill="#374151" stroke="#374151" stroke-width="1.4" points="437,-348.95 445,-348.95 445,-350.55 437,-350.55 437,-348.95"/>
<polyline fill="none" stroke="#374151" stroke-width="1.4" points="441,-348.15 441,-352.15 "/>
<text text-anchor="middle" x="385.5" y="-589" font-family="DejaVu Sans" font-size="10.00">produces</text>
</g>
<!-- deployments&#45;&gt;versions -->
<g id="edge11" class="edge">
<title>deployments&#45;&gt;versions</title>
<path fill="none" stroke="#374151" stroke-width="1.4" d="M725.85,-812.5C725.85,-812.5 841,-812.5 841,-812.5 841,-812.5 841,-564.52 841,-564.52"/>
<polygon fill="#374151" stroke="#374151" stroke-width="1.4" points="718.65,-816.5 718.65,-808.5 720.25,-808.5 720.25,-816.5 718.65,-816.5"/>
<polyline fill="none" stroke="#374151" stroke-width="1.4" points="717.85,-812.5 721.85,-812.5 "/>
<polygon fill="#374151" stroke="#374151" stroke-width="1.4" points="722.65,-816.5 722.65,-808.5 724.25,-808.5 724.25,-816.5 722.65,-816.5"/>
<polyline fill="none" stroke="#374151" stroke-width="1.4" points="721.85,-812.5 725.85,-812.5 "/>
<polygon fill="#374151" stroke="#374151" stroke-width="1.4" points="837,-557.32 845,-557.32 845,-558.92 837,-558.92 837,-557.32"/>
<polyline fill="none" stroke="#374151" stroke-width="1.4" points="841,-556.52 841,-560.52 "/>
<polygon fill="#374151" stroke="#374151" stroke-width="1.4" points="837,-561.32 845,-561.32 845,-562.92 837,-562.92 837,-561.32"/>
<polyline fill="none" stroke="#374151" stroke-width="1.4" points="841,-560.52 841,-564.52 "/>
<text text-anchor="middle" x="772.5" y="-795.5" font-family="DejaVu Sans" font-size="10.00">creates</text>
</g>
<!-- steps&#45;&gt;logs -->
<g id="edge9" class="edge">
<title>steps&#45;&gt;logs</title>
<path fill="none" stroke="#374151" stroke-width="1.4" d="M581,-409.56C581,-409.56 581,-354.5 581,-354.5"/>
<ellipse fill="none" stroke="#374151" stroke-width="1.4" cx="581" cy="-343.3" rx="3.2" ry="3.2"/>
<polygon fill="#374151" stroke="#374151" stroke-width="1.4" points="577,-347.3 585,-347.3 585,-348.9 577,-348.9 577,-347.3"/>
<polyline fill="none" stroke="#374151" stroke-width="1.4" points="581,-346.5 581,-350.5 "/>
<polygon fill="#374151" stroke="#374151" stroke-width="1.4" points="581,-411.96 577.4,-419.96 581,-415.96 581,-419.96 581,-419.96 581,-419.96 581,-415.96 584.6,-419.96 581,-411.96 581,-411.96"/>
<ellipse fill="none" stroke="#374151" stroke-width="1.4" cx="581" cy="-408.76" rx="3.2" ry="3.2"/>
</g>
</g>
</svg>
